<svg width="23.000000" height="23.000000" viewBox="0 0 23 23" fill="none" xmlns="http://www.w3.org/2000/svg" xmlns:xlink="http://www.w3.org/1999/xlink">
	<desc>
			Created with Pixso.
	</desc>
	<defs>
		<clipPath id="clip1_389">
			<rect id="Frame" width="23.000000" height="23.000000" fill="white" fill-opacity="0"/>
		</clipPath>
	</defs>
	<g clip-path="url(#clip1_389)">
		<path id="Vector" d="M11.4392 6.77441C8.59973 6.77441 6.24695 9.08643 6.24695 11.9668C6.24695 14.8467 8.55908 17.1587 11.4392 17.1587C14.3192 17.1587 16.6315 14.8062 16.6315 11.9668C16.6315 9.12695 14.2787 6.77441 11.4392 6.77441ZM11.4392 15.293C9.61377 15.293 8.11292 13.792 8.11292 11.9668C8.11292 10.1411 9.61377 8.64014 11.4392 8.64014C13.2646 8.64014 14.7655 10.1411 14.7655 11.9668C14.7655 13.792 13.2646 15.293 11.4392 15.293Z" fill="#000000" fill-opacity="1.000000" fill-rule="nonzero"/>
		<path id="Vector" d="M18.0106 6.65234C18.0106 7.30225 17.4839 7.82861 16.8342 7.82861C16.1846 7.82861 15.6578 7.30225 15.6578 6.65234C15.6578 6.00293 16.1846 5.47607 16.8342 5.47607C17.4839 5.47607 18.0106 6.00293 18.0106 6.65234Z" fill="#000000" fill-opacity="1.000000" fill-rule="evenodd"/>
		<path id="Vector" d="M19.8765 3.61035C18.8218 2.51514 17.3209 1.94727 15.6172 1.94727L7.26099 1.94727C3.73193 1.94727 1.37915 4.2998 1.37915 7.8291L1.37915 16.145C1.37915 17.8892 1.94702 19.3901 3.08289 20.4854C4.1781 21.54 5.63843 22.0674 7.30151 22.0674L15.5767 22.0674C17.3209 22.0674 18.7812 21.4995 19.8359 20.4854C20.9312 19.4307 21.499 17.9297 21.499 16.1855L21.499 7.8291C21.499 6.12549 20.9312 4.66504 19.8765 3.61035ZM19.7142 16.1855C19.7142 17.4429 19.2681 18.457 18.5378 19.1465C17.8077 19.8359 16.7936 20.2012 15.5767 20.2012L7.30151 20.2012C6.08459 20.2012 5.07056 19.8359 4.34033 19.1465C3.61023 18.4165 3.24512 17.4023 3.24512 16.145L3.24512 7.8291C3.24512 6.6123 3.61023 5.59814 4.34033 4.86768C5.02991 4.17822 6.08459 3.81299 7.30151 3.81299L15.6578 3.81299C16.8748 3.81299 17.8888 4.17822 18.619 4.90869C19.3086 5.63867 19.7142 6.65283 19.7142 7.8291L19.7142 16.1855Z" fill="#000000" fill-opacity="1.000000" fill-rule="nonzero"/>
	</g>
</svg>
