<svg width="22.000000" height="22.000000" viewBox="0 0 22 22" fill="none" xmlns="http://www.w3.org/2000/svg" xmlns:xlink="http://www.w3.org/1999/xlink">
	<desc>
			Created with Pixso.
	</desc>
	<defs>
		<clipPath id="clip1_387">
			<rect id="Frame" width="22.000000" height="22.000000" fill="white" fill-opacity="0"/>
		</clipPath>
	</defs>
	<g clip-path="url(#clip1_387)">
		<path id="Vector" d="M21.1406 4.70508C20.3929 5.03613 19.5938 5.25928 18.7516 5.3623C19.611 4.84668 20.2726 4.03027 20.582 3.05957C19.7784 3.53613 18.889 3.88428 17.9395 4.06934C17.1788 3.25684 16.0961 2.75 14.9015 2.75C12.6027 2.75 10.7422 4.61475 10.7422 6.91357C10.7422 7.24023 10.7765 7.55811 10.8496 7.86328C7.39062 7.69141 4.32263 6.03271 2.27307 3.51074C1.91638 4.125 1.71008 4.84277 1.71008 5.60303C1.71008 7.04688 2.44495 8.32324 3.56213 9.0708C2.87891 9.05371 2.23438 8.86426 1.67578 8.55078C1.67578 8.56787 1.67578 8.58496 1.67578 8.60254C1.67578 10.6221 3.11096 12.3018 5.0144 12.6846C4.66638 12.7788 4.29688 12.8306 3.9187 12.8306C3.65234 12.8306 3.39026 12.8047 3.13672 12.7529C3.66516 14.4072 5.20349 15.6104 7.02539 15.645C5.60315 16.7622 3.80701 17.4282 1.8562 17.4282C1.52112 17.4282 1.19019 17.4067 0.863647 17.3682C2.70276 18.5625 4.88977 19.25 7.23596 19.25C14.8929 19.25 19.0781 12.9033 19.0781 7.39941C19.0781 7.21875 19.0739 7.03809 19.0652 6.8623C19.8773 6.27344 20.582 5.53857 21.1406 4.70508Z" fill="#000000" fill-opacity="1.000000" fill-rule="nonzero"/>
	</g>
</svg>
