<svg width="22.000000" height="22.000000" viewBox="0 0 22 22" fill="none" xmlns="http://www.w3.org/2000/svg" xmlns:xlink="http://www.w3.org/1999/xlink">
	<desc>
			Created with Pixso.
	</desc>
	<defs>
		<clipPath id="clip1_394">
			<rect id="Frame" width="22.000000" height="22.000000" fill="white" fill-opacity="0"/>
		</clipPath>
	</defs>
	<g clip-path="url(#clip1_394)">
		<path id="Vector" d="M15.7142 11C15.7142 10.6973 15.5916 10.4766 15.3459 10.3374L9.0603 6.40869C8.80652 6.24512 8.54053 6.23682 8.26233 6.38428C7.99219 6.53125 7.85718 6.76074 7.85718 7.07178L7.85718 14.9287C7.85718 15.2397 7.99219 15.4688 8.26233 15.6162C8.39319 15.6816 8.52014 15.7144 8.64282 15.7144C8.80652 15.7144 8.94568 15.6733 9.0603 15.5918L15.3459 11.6631C15.5916 11.5239 15.7142 11.3032 15.7142 11ZM22 11C22 11.7861 21.9958 12.3999 21.9877 12.8418C21.9795 13.2837 21.9447 13.8423 21.8834 14.5176C21.822 15.1929 21.7299 15.7964 21.6072 16.3281C21.4762 16.9258 21.1938 17.4292 20.76 17.8384C20.3263 18.2476 19.8188 18.4849 19.2377 18.5503C17.4208 18.7549 14.6748 18.8574 11 18.8574C7.3252 18.8574 4.57922 18.7549 2.76233 18.5503C2.18115 18.4849 1.67163 18.2476 1.23376 17.8384C0.795898 17.4292 0.511475 16.9258 0.380615 16.3281C0.265991 15.7964 0.177979 15.1929 0.116577 14.5176C0.0552979 13.8423 0.0205078 13.2837 0.0123291 12.8418C0.00415039 12.3999 0 11.7861 0 11C0 10.2144 0.00415039 9.60059 0.0123291 9.15869C0.0205078 8.7168 0.0552979 8.1582 0.116577 7.48291C0.177979 6.80762 0.270142 6.2041 0.392822 5.67188C0.523804 5.07471 0.806152 4.57129 1.23999 4.16211C1.67371 3.75293 2.18115 3.51562 2.76233 3.4502C4.57922 3.24561 7.3252 3.14307 11 3.14307C14.6748 3.14307 17.4208 3.24561 19.2377 3.4502C19.8188 3.51562 20.3284 3.75293 20.7662 4.16211C21.2041 4.57129 21.4885 5.07471 21.6194 5.67188C21.734 6.2041 21.822 6.80762 21.8834 7.48291C21.9447 8.1582 21.9795 8.7168 21.9877 9.15869C21.9958 9.60059 22 10.2144 22 11Z" fill="#000000" fill-opacity="1.000000" fill-rule="nonzero"/>
	</g>
</svg>
